# xmcd CD database file
#
# Track frame offsets:
#	150
#	15959
#	45720
#	62469
#	82618
#	111903
#	140841
#	158463
#	178875
#	199079
#	225795
#	243247
#	270736
#	287945
#
# Disc length: 3977 seconds
#
# Revision: 0
# Processed by: cddbd v1.5.2PL0 Copyright (c) Steve Scherf et al.
# Submitted via: CDex 1.70beta2
#
DISCID=af0f870e
DTITLE=Lars Jansson Trio - In Search Of Lost Time
DYEAR=2009
DGENRE=Jazz
TTITLE0=There Is A Butterfly In My Room
TTITLE1=At-One-Ment
TTITLE2=Midsummer
TTITLE3=Siljan Waltz
TTITLE4=In Search Of Lost Time
TTITLE5=Simple Song Simple Life
TTITLE6=One Hand Clapping
TTITLE7=Fisherman
TTITLE8=God's Delays Are Not God's Denials
TTITLE9=A Rare Italian Bird
TTITLE10=Where Is The Blues 4
TTITLE11=Gods Who Shit
TTITLE12=New Room
TTITLE13=Hilda
EXTD=YEAR: 2009
EXTT0=
EXTT1=
EXTT2=
EXTT3=
EXTT4=
EXTT5=
EXTT6=
EXTT7=
EXTT8=
EXTT9=
EXTT10=
EXTT11=
EXTT12=
EXTT13=
PLAYORDER=
